<?xml version="1.0" ?><svg style="enable-background:new 0 0 64 64;" version="1.1" viewBox="0 0 64 64" xml:space="preserve" xmlns="http://www.w3.org/2000/svg" xmlns:xlink="http://www.w3.org/1999/xlink"><g id="basketball"/><g id="field"/><g id="basket"/><g id="trophy"/><g id="league_1_"/><g id="player"/><g id="uniform_1_"/><g id="scoreboard"/><g id="medal"/><g id="shoe_1_"/><g id="ticket_1_"/><g id="event_1_"/><g id="time"><g><path d="M51.7,20.6l2.3-2.3c0.4-0.4,0.4-1,0-1.4l-2.8-2.8c-0.4-0.4-1-0.4-1.4,0l-2.3,2.3c-2.7-2.2-5.9-3.7-9.4-4.6V9h1    c0.6,0,1-0.4,1-1V4c0-0.6-0.4-1-1-1H25c-0.6,0-1,0.4-1,1v4c0,0.6,0.4,1,1,1h1v2.7C15.1,14.4,7,24.3,7,36c0,13.8,11.2,25,25,25    s25-11.2,25-25C57,30.2,55,24.8,51.7,20.6z M50.4,16.2l1.4,1.4l-1.4,1.4c-0.5-0.5-0.9-1-1.4-1.4L50.4,16.2z M26,5h12v2h-1H27h-1V5    z M28,9h8v2.3c-1.3-0.2-2.6-0.3-4-0.3s-2.7,0.1-4,0.3V9z M32,59C19.3,59,9,48.7,9,36s10.3-23,23-23c12.7,0,23,10.3,23,23    S44.7,59,32,59z"/><path d="M32,16c-11,0-20,9-20,20s9,20,20,20c11,0,20-9,20-20S43,16,32,16z M32,54c-9.9,0-18-8.1-18-18s8.1-18,18-18    c9.9,0,18,8.1,18,18S41.9,54,32,54z"/><path d="M33,32.1V25c0-0.6-0.4-1-1-1s-1,0.4-1,1v7.1c-1.4,0.4-2.5,1.5-2.9,2.9c0,0-0.1,0-0.1,0h-5c-0.6,0-1,0.4-1,1s0.4,1,1,1h5    c0,0,0.1,0,0.1,0c0.4,1.7,2,3,3.9,3c2.2,0,4-1.8,4-4C36,34.1,34.7,32.6,33,32.1z M32,38c-1.1,0-2-0.9-2-2s0.9-2,2-2    c1.1,0,2,0.9,2,2S33.1,38,32,38z"/><path d="M32,22c0.6,0,1-0.4,1-1v-1c0-0.6-0.4-1-1-1s-1,0.4-1,1v1C31,21.6,31.4,22,32,22z"/><path d="M32,50c-0.6,0-1,0.4-1,1v1c0,0.6,0.4,1,1,1s1-0.4,1-1v-1C33,50.4,32.6,50,32,50z"/><path d="M48,35h-1c-0.6,0-1,0.4-1,1s0.4,1,1,1h1c0.6,0,1-0.4,1-1S48.6,35,48,35z"/><path d="M17,35h-1c-0.6,0-1,0.4-1,1s0.4,1,1,1h1c0.6,0,1-0.4,1-1S17.6,35,17,35z"/></g></g><g id="strategy_1_"/><g id="supporter"/><g id="whistle"/><g id="podium"/><g id="bag"/><g id="bottle"/><g id="badge"/></svg>